<svg width="65" height="92" fill="none" xmlns="http://www.w3.org/2000/svg"><g id="Group 9"><path id="Vector" d="M59.5 7.75h-54a3.5 3.5 0 00-3.5 3.5v76a3.5 3.5 0 003.5 3.5h54a3.5 3.5 0 003.5-3.5v-76a3.5 3.5 0 00-3.5-3.5z" stroke="#202020" stroke-width="3"/><path id="Vector_2" d="M41.5 1.75a1.5 1.5 0 011.5 1.5 4.5 4.5 0 004.5 4.5 1.5 1.5 0 011.5 1.5v2a2.5 2.5 0 01-2.5 2.5h-28a2.5 2.5 0 01-2.5-2.5v-2a1.5 1.5 0 011.5-1.5 4.5 4.5 0 004.5-4.5 1.5 1.5 0 011.5-1.5h18z" fill="#F5F5F5" stroke="#202020" stroke-width="3"/><path id="Vector_3" d="M9.5 26.75h34" stroke="#202020" stroke-width="3"/><path id="Vector_4" d="M9.5 36.75h34" stroke="#202020" stroke-width="3"/><path id="Vector_5" d="M15.5 46.75h28" stroke="#FF4505" stroke-width="3"/><path id="Vector_6" d="M15.5 56.75h28" stroke="#FF4505" stroke-width="3"/><path id="Vector_7" d="M15.5 66.75h28" stroke="#FF4505" stroke-width="3"/><path id="Vector_8" d="M15.5 76.75h28" stroke="#FF4505" stroke-width="3"/><path id="Vector_9" d="M11 48.25a1.5 1.5 0 100-3 1.5 1.5 0 000 3z" fill="#FF4505"/><path id="Vector_10" d="M11 58.25a1.5 1.5 0 100-3 1.5 1.5 0 000 3z" fill="#FF4505"/><path id="Vector_11" d="M11 68.25a1.5 1.5 0 100-3 1.5 1.5 0 000 3z" fill="#FF4505"/><path id="Vector_12" d="M11 78.25a1.5 1.5 0 100-3 1.5 1.5 0 000 3z" fill="#FF4505"/><g id="Group 6" fill="#FF4505"><path id="Vector_13" d="M47.549 26.297a1 1 0 01.999-1.047h5.905a1 1 0 01.999 1.047l-1.907 41a1 1 0 01-1 .953h-2.09a1 1 0 01-1-.954l-1.906-41z"/><path id="Vector_14" d="M49.5 77.25a1 1 0 001 1h2a1 1 0 001-1v-2a1 1 0 00-1-1h-2a1 1 0 00-1 1v2z"/></g></g></svg>