<svg width="69" height="93" fill="none" xmlns="http://www.w3.org/2000/svg"><g id="Frame 46"><g id="Group 7"><g id="Union"><mask id="path-1-inside-1_375_524" fill="#fff"><path fill-rule="evenodd" clip-rule="evenodd" d="M4 0a4 4 0 00-4 4v68.772a4 4 0 004 4h61a4 4 0 004-4V4a4 4 0 00-4-4H4zm51.68 92.695V76.772H36.965L55.68 92.695z"/></mask><path d="M55.68 76.772h3v-3h-3v3zm0 15.923l-1.944 2.285 4.944 4.206v-6.49h-3zM36.965 76.772v-3h-8.156l6.212 5.285 1.944-2.285zM3 4a1 1 0 011-1v-6a7 7 0 00-7 7h6zm0 68.772V4h-6v68.772h6zm1 1a1 1 0 01-1-1h-6a7 7 0 007 7v-6zm61 0H4v6h61v-6zm1-1a1 1 0 01-1 1v6a7 7 0 007-7h-6zM66 4v68.772h6V4h-6zm-1-1a1 1 0 011 1h6a7 7 0 00-7-7v6zM4 3h61v-6H4v6zm48.68 73.772v15.923h6V76.772h-6zm-15.715 3H55.68v-6H36.965v6zM57.624 90.41L38.909 74.487l-3.888 4.57L53.736 94.98l3.888-4.57z" fill="#202020" mask="url(#path-1-inside-1_375_524)"/></g><g id="Group 6" fill="#FF4505"><path id="Vector" d="M31.001 13.046A1 1 0 0132 12h5.905a1 1 0 01.999 1.046l-1.907 41a1 1 0 01-1 .954h-2.09a1 1 0 01-.999-.953l-1.907-41z"/><path id="Vector_2" d="M32.952 64a1 1 0 001 1h2a1 1 0 001-1v-2a1 1 0 00-1-1h-2a1 1 0 00-1 1v2z"/></g></g></g></svg>