<svg width="70" height="93" fill="none" xmlns="http://www.w3.org/2000/svg"><g id="Frame 47"><g id="Group 8"><g id="Union"><mask id="path-1-inside-1_375_534" fill="#fff"><path fill-rule="evenodd" clip-rule="evenodd" d="M4.5 0a4 4 0 00-4 4v68.772a4 4 0 004 4h61a4 4 0 004-4V4a4 4 0 00-4-4h-61zm51.68 92.695V76.772H37.465L56.18 92.695z"/></mask><path d="M56.18 76.772h3v-3h-3v3zm0 15.923l-1.944 2.285 4.944 4.206v-6.49h-3zM37.465 76.772v-3h-8.156l6.212 5.285 1.944-2.285zM3.5 4a1 1 0 011-1v-6a7 7 0 00-7 7h6zm0 68.772V4h-6v68.772h6zm1 1a1 1 0 01-1-1h-6a7 7 0 007 7v-6zm61 0h-61v6h61v-6zm1-1a1 1 0 01-1 1v6a7 7 0 007-7h-6zM66.5 4v68.772h6V4h-6zm-1-1a1 1 0 011 1h6a7 7 0 00-7-7v6zm-61 0h61v-6h-61v6zm48.68 73.772v15.923h6V76.772h-6zm-15.715 3H56.18v-6H37.465v6zM58.124 90.41L39.409 74.487l-3.888 4.57L54.236 94.98l3.888-4.57z" fill="#202020" mask="url(#path-1-inside-1_375_534)"/></g><path id="?" d="M23.502 28.474C23.387 19.84 29.916 17 35.672 17c6.13 0 11.828 3.274 11.828 10.112 0 4.868-2.864 7.244-5.584 9.388-3.294 2.58-4.525 3.564-4.525 6.867v1.681h-5.47l-.029-2.26c-.114-4.201 2.435-6.722 5.356-8.982 2.663-2.087 4.353-3.42 4.353-6.375 0-3.97-2.979-5.563-6.215-5.563-4.296 0-6.415 2.868-6.443 6.606H23.5zm7.646 25.991c0-2.028 1.632-3.535 3.637-3.535 2.004 0 3.637 1.507 3.637 3.535 0 2.028-1.633 3.535-3.637 3.535-2.005 0-3.637-1.507-3.637-3.535z" fill="#FF4505"/></g></g></svg>